<svg xmlns="http://www.w3.org/2000/svg" width="29.2" height="9.3" viewBox="0 0 29.2 9.3"><defs><style>.a{fill:#005488}</style></defs><path class="a" d="M9.29 3.76v-2A1.76 1.76 0 0 0 7.53 0H1.76A1.76 1.76 0 0 0 0 1.76v5.78A1.76 1.76 0 0 0 1.76 9.3h5.77a1.76 1.76 0 0 0 1.76-1.76V5.6a1 1 0 0 1 0-1.84zM4.65 6.6c-.88 0-1.58-.07-1.58-1.15v-.2H4v.12c0 .43.22.45.58.45s.57 0 .57-.46c0-.26 0-.36-.57-.36h-.22v-.73h.25c.49 0 .53 0 .53-.31s0-.42-.53-.42-.54 0-.54.44v.08h-1v-.13c0-1.08.57-1.17 1.54-1.17.61 0 1.45 0 1.45 1 0 .42-.12.79-.59.85.49 0 .63.37.63.81.04 1.04-.59 1.18-1.45 1.18zm14.6-2.83v-2A1.76 1.76 0 0 0 17.49 0h-5.78A1.76 1.76 0 0 0 10 1.76v2a1 1 0 0 1 .65.93 1 1 0 0 1-.65.91v1.94a1.76 1.76 0 0 0 1.71 1.76h5.78a1.76 1.76 0 0 0 1.76-1.76v-2a1 1 0 0 1-.63-.91 1 1 0 0 1 .63-.86zm-3.73 2.8h-1V3.68l-1 .89-.52-.64 1.38-1.15h1.18zM27.44 0h-5.77a1.76 1.76 0 0 0-1.76 1.76v2a1 1 0 0 1 .64.93 1 1 0 0 1-.64.91v2a1.76 1.76 0 0 0 1.76 1.7h5.77a1.76 1.76 0 0 0 1.76-1.76V1.76A1.76 1.76 0 0 0 27.44 0zm-1.89 6.57h-1V3.68l-1 .89-.55-.64 1.38-1.15h1.18z"/></svg>