<svg width="48" height="48" viewBox="0 0 48 48" xmlns="http://www.w3.org/2000/svg">
  <path d="m19.1 12.7c-1.5-1.3-3.5-2-5.5-2-4.8 0-8.7 3.9-8.7 8.7 0 4.6 3.6 8.4 8.1 8.7-0.1 1.7-2.1 4.4-4.5 6-0.5 0.2-0.9 0.7-0.9 1.3 0 0.8 0.6 1.4 1.4 1.4 0.2 0 0.3 0 0.5-0.1 0.1 0.2 1.9-0.5 2.1-0.5 0.8-0.3 1.6-0.7 2.4-1.2 1.8-1.1 7.3-4.7 8.6-10.4s-1.3-10.2-3.5-11.9z" fill="#0172f0"/>
  <path d="m39.8 12.7c-1.5-1.3-3.5-2-5.5-2-4.8 0-8.7 3.9-8.7 8.7 0 4.6 3.6 8.4 8.1 8.7-0.1 1.7-2.1 4.4-4.5 6-0.5 0.2-0.9 0.7-0.9 1.3 0 0.8 0.6 1.4 1.4 1.4 0.2 0 0.3 0 0.5-0.1 0.1 0.2 1.9-0.5 2.1-0.5 0.8-0.3 1.6-0.7 2.4-1.2 1.8-1.1 7.3-4.7 8.6-10.4s-1.3-10.2-3.5-11.9z" fill="#0172f0"/>
</svg>
