<svg width="109" height="32" viewBox="0 0 109 32" version="1.1" xmlns="http://www.w3.org/2000/svg" xmlns:xlink="http://www.w3.org/1999/xlink">
	<title>8g&#240;</title>
	<desc>Created using Figma</desc>
	<g id="Canvas" transform="translate(142 64)">
		<g id="logo-no-comment">
			<g id="Group">
				<g id="Vector">
					<use xlink:href="#path0_fill" transform="translate(-92.6692 -52.3137)" fill="#FFFFFF"/>
				</g>
				<g id="Vector">
					<use xlink:href="#path1_fill" transform="translate(-117.676 -56.4078)" fill="#FFFFFF"/>
				</g>
				<g id="Vector">
					<use xlink:href="#path2_fill" transform="translate(-104.297 -52.3137)" fill="#FFFFFF"/>
				</g>
				<g id="Vector">
					<use xlink:href="#path3_fill" transform="translate(-75.8915 -52.3137)" fill="#FFFFFF"/>
				</g>
				<g id="Vector">
					<use xlink:href="#path4_fill" transform="translate(-59.6364 -52.3137)" fill="#FFFFFF"/>
				</g>
				<g id="Vector">
					<use xlink:href="#path5_fill" transform="translate(-38.8671 -55.5068)" fill="#FFFFFF"/>
				</g>
				<g id="Vector">
					<use xlink:href="#path6_fill" transform="translate(-48.3599 -52.3137)" fill="#FFFFFF"/>
				</g>
			</g>
			<g id="Vector">
				<use xlink:href="#path7_fill" transform="translate(-142 -56.0554)" fill="#BF1724"/>
			</g>
			<g id="Group">
				<g id="Vector">
					<use xlink:href="#path8_fill" transform="translate(-129.405 -52.3135)" fill="#BF1724"/>
				</g>
			</g>
			<g id="Vector">
				<use xlink:href="#path9_fill" transform="translate(-121.094 -64)" fill="#FFFFFF"/>
			</g>
		</g>
	</g>
	<defs>
		<path id="path0_fill" d="M 14.6669 10.0889L 14.6669 3.8985C 14.6669 3.01687 14.6475 2.62527 14.5303 2.17465C 14.1192 0.646616 12.7893 6.10367e-08 11.3031 6.10367e-08C 10.1497 6.10367e-08 9.46505 0.372409 9.05416 0.646616C 8.52608 0.999225 8.33062 1.27343 8.15472 1.48904C 7.60707 0.509413 6.55109 6.10367e-08 5.43641 6.10367e-08C 4.06777 6.10367e-08 3.0116 0.725018 2.67917 1.03843C 2.58114 1.11663 2.52264 1.17563 2.36591 1.39104L 2.34655 0.294008L 3.6558e-07 0.294008L 3.6558e-07 10.0889L 2.34655 10.0889L 2.34655 5.97495C 2.34655 4.87792 2.36591 3.50669 3.32446 2.68387C 3.81321 2.27266 4.32174 2.21386 4.55653 2.21386C 4.73223 2.21386 5.22139 2.23346 5.61251 2.58606C 6.1406 3.07588 6.1406 3.76129 6.1406 3.9573C 6.1406 4.1729 6.1406 4.38831 6.16016 4.60371L 6.16016 10.0889L 8.48714 10.0889L 8.48714 5.48534C 8.48714 4.70172 8.50711 3.8985 8.95693 3.19328C 9.48482 2.33126 10.3258 2.19425 10.6975 2.19425C 12.2616 2.19425 12.3205 3.72229 12.3399 4.0945L 12.3399 10.0889L 14.6669 10.0889L 14.6669 10.0889Z"/>
		<path id="path1_fill" d="M 4.98679 2.74247C 5.26052 2.60527 5.80797 2.37026 6.59042 2.37026C 7.68533 2.35066 8.72174 2.85987 9.24983 3.8395C 9.50419 4.30971 9.58245 4.76032 9.60182 4.93652L 12.1636 4.27051C 11.929 3.54569 11.6553 2.85987 11.2055 2.19405C 10.5797 1.31243 9.19133 -1.8311e-07 6.55129 -1.8311e-07C 3.52012 -1.8311e-07 1.93586 1.72364 1.27121 2.68367C 1.04723e-06 4.50551 1.46232e-07 6.48416 1.46232e-07 7.22858C 1.46232e-07 11.3227 2.11195 13.2035 3.67645 13.9479C 4.86939 14.4966 5.98407 14.5356 6.45346 14.5356C 9.23046 14.5356 10.7361 13.0073 11.3815 12.1847C 11.8507 11.5773 12.1245 11.0289 12.418 10.3235L 9.97338 9.30503C 9.85618 9.65764 9.79728 9.81425 9.71922 9.99065C 9.66052 10.0885 9.44529 10.4999 9.17156 10.8331C 8.50691 11.6557 7.7051 12.0867 6.62955 12.0867C 6.2578 12.0867 5.43661 12.0279 4.61503 11.4599C 4.22411 11.2051 3.89148 10.8525 3.61775 10.4413C 2.81594 9.20723 2.79657 7.56139 2.79657 7.16958C 2.79657 4.58391 3.96975 3.25188 4.98679 2.74247Z"/>
		<path id="path2_fill" d="M 5.08462 10.3829C 7.99839 10.3829 9.2696 8.34561 9.66052 7.34638C 10.0323 6.42536 10.0516 5.50494 10.0516 5.15213C 10.0323 2.21366 8.21362 0.901222 7.15744 0.450611C 6.23843 0.0392007 5.37811 6.10367e-08 5.00636 6.10367e-08C 2.09259 6.10367e-08 0.821582 1.97865 0.430258 2.95807C 0.273728 3.31068 9.01763e-07 4.0943 9.01763e-07 5.15213C 9.01763e-07 8.1104 1.85799 9.46204 2.87484 9.93225C 3.83298 10.3435 4.67393 10.3829 5.08462 10.3829ZM 2.44458 5.09353C 2.44458 3.62429 3.129 2.82107 3.63752 2.48806C 4.16561 2.15505 4.7522 2.11585 4.96722 2.11585C 6.68825 2.11585 7.54857 3.58509 7.60726 5.11333C 7.6464 6.66077 6.86415 8.22801 5.08462 8.22801C 3.48099 8.22801 2.81614 6.89577 2.64004 6.42536C 2.50288 5.97495 2.44458 5.56374 2.44458 5.09353Z"/>
		<path id="path3_fill" d="M 14.6671 10.0889L 14.6671 3.8985C 14.6671 3.01687 14.6471 2.62527 14.5299 2.17465C 14.1188 0.646616 12.7897 6.10367e-08 11.3033 6.10367e-08C 10.1495 6.10367e-08 9.46486 0.372409 9.05437 0.646616C 8.52628 0.999225 8.33102 1.27343 8.15472 1.48904C 7.60747 0.509413 6.55129 6.10367e-08 5.43621 6.10367e-08C 4.06758 6.10367e-08 3.0112 0.725018 2.67857 1.03843C 2.58114 1.11663 2.52264 1.17563 2.36631 1.39104L 2.34655 0.294008L 1.31609e-06 0.294008L 1.31609e-06 10.0889L 2.34655 10.0889L 2.34655 5.97495C 2.34655 4.87792 2.36632 3.50669 3.32446 2.68387C 3.81302 2.27266 4.32174 2.21386 4.55594 2.21386C 4.73203 2.21386 5.22118 2.23346 5.61211 2.58606C 6.1402 3.07588 6.1402 3.76129 6.1402 3.9573C 6.1402 4.1729 6.1402 4.38831 6.15976 4.60371L 6.15976 10.0889L 8.48675 10.0889L 8.48675 5.48534C 8.48675 4.70172 8.50691 3.8985 8.95674 3.19328C 9.48482 2.33126 10.3252 2.19425 10.6969 2.19425C 12.2616 2.19425 12.3199 3.72229 12.3399 4.0945L 12.3399 10.0889L 14.6671 10.0889L 14.6671 10.0889Z"/>
		<path id="path4_fill" d="M 8.76087 1.88065C 8.25235 1.13643 7.09915 6.10367e-08 4.90853 6.10367e-08C 2.07282 6.10367e-08 0.860912 1.80244 0.430255 2.78207C 0.117196 3.52629 -1.65729e-06 4.30991 -1.65729e-06 5.13273C -1.65729e-06 6.66077 0.411093 8.0124 1.52557 9.07043C 2.85507 10.3047 4.3998 10.3829 5.02592 10.3829C 7.04044 10.3829 8.35058 9.42304 8.89823 8.91362C 9.36742 8.48241 9.64135 8.1102 9.79788 7.895L 7.80273 6.73917C 7.66616 6.95437 7.54896 7.11138 7.4707 7.18978C 7.15784 7.52259 6.45346 8.0908 5.24135 8.0908C 4.02885 8.0908 3.44226 7.56179 3.10963 7.15058C 2.62048 6.56296 2.52264 5.95555 2.48391 5.66174L 9.71962 5.66174C 9.66072 3.76129 9.2109 2.56646 8.76087 1.88065ZM 2.56198 3.9377C 2.62027 3.60469 2.87464 2.50766 3.97035 2.05705C 4.16581 1.97885 4.43954 1.88065 4.94786 1.88065C 6.21886 1.88065 6.72698 2.66427 6.94241 3.13448C 7.07898 3.46749 7.11851 3.80049 7.13788 3.9181L 2.56198 3.9377Z"/>
		<path id="path5_fill" d="M 3.77409 3.05183e-08L 1.42754 3.05183e-08L 1.42754 3.48709L -1.46232e-06 3.48709L -1.46232e-06 5.15213L 1.42754 5.15213L 1.42754 10.1475C 1.42754 11.0097 1.4469 11.6953 1.54473 12.0087C 1.5647 12.1065 1.64236 12.3419 1.83843 12.5771C 2.22935 13.0471 2.894 13.3605 4.18497 13.3605C 4.98699 13.3605 5.55381 13.2429 5.86707 13.2039L 5.86707 11.2249C 5.57317 11.3035 5.24115 11.3425 4.90853 11.3425C 4.84963 11.3425 4.28281 11.3625 4.00908 11.0487C 3.71579 10.7355 3.77409 9.99085 3.77409 9.59904L 3.77409 5.15213L 5.86687 5.15213L 5.86687 3.48709L 3.77409 3.48709L 3.77409 3.05183e-08L 3.77409 3.05183e-08Z"/>
		<path id="path6_fill" d="M 5.36184e-07 0.294008L 5.36184e-07 10.0889L 2.36592 10.0889L 2.36592 5.83795C 2.32738 4.1531 2.58134 3.33048 3.28553 2.74267C 3.77388 2.33126 4.26304 2.29226 4.5176 2.29226C 4.98679 2.29226 5.86687 2.44886 6.1406 3.58509C 6.23843 3.9573 6.21906 4.32951 6.23843 5.09353L 6.23843 10.0889L 8.54604 10.0889L 8.54604 4.32951C 8.54604 3.33048 8.60435 2.09625 7.97863 1.19503C 7.66597 0.744618 6.82482 6.10367e-08 5.37771 6.10367e-08C 5.04509 6.10367e-08 3.71599 0.078402 2.79637 0.940423C 2.60091 1.13623 2.40545 1.39083 2.36592 1.44984L 2.36592 0.294008L 5.36184e-07 0.294008Z"/>
		<path id="path7_fill" d="M 8.44801 9.75604L 2.32698 2.44147e-08L 0 2.44147e-08L 0 13.8305L 2.52244 13.8305L 2.36611 4.1335L 8.40888 13.8305L 10.6774 13.8305L 10.6774 2.44147e-08L 8.13515 2.44147e-08L 8.44801 9.75604Z"/>
		<path id="path8_fill" d="M 8.30646 1.16103C 7.90116 0.82222 7.49127 0.593015 7.15744 0.450411C 6.23843 0.0392007 5.37811 -4.88293e-08 5.00636 -4.88293e-08C 2.09259 -4.88293e-08 0.821581 1.97865 0.430456 2.95807C 0.273727 3.31068 -2.92464e-07 4.0943 -2.92464e-07 5.15213C -2.92464e-07 8.1102 1.85799 9.46184 2.87484 9.93205C 3.83298 10.3435 4.67393 10.3827 5.08462 10.3827C 6.53372 10.3827 7.57612 9.87845 8.30646 9.24923L 8.30646 1.16103ZM 5.08462 8.22761C 3.48099 8.22761 2.81614 6.89537 2.64004 6.42516C 2.50328 5.97455 2.44458 5.56354 2.44458 5.09313C 2.44458 3.62389 3.129 2.82067 3.63752 2.48786C 4.16541 2.15465 4.75239 2.11545 4.96722 2.11545C 6.68825 2.11545 7.54857 3.58469 7.60747 5.11293C 7.6464 6.66037 6.86435 8.22761 5.08462 8.22761Z"/>
		<path id="path9_fill" d="M 0.426464 0L 0 0L 0 32L 0.426464 32L 0.426464 0Z"/>
	</defs>
</svg>
