<?xml version="1.0" encoding="UTF-8" standalone="no"?>
<!-- Created with Inkscape (http://www.inkscape.org/) -->

<svg
   xmlns:dc="http://purl.org/dc/elements/1.1/"
   xmlns:cc="http://creativecommons.org/ns#"
   xmlns:rdf="http://www.w3.org/1999/02/22-rdf-syntax-ns#"
   xmlns:svg="http://www.w3.org/2000/svg"
   xmlns="http://www.w3.org/2000/svg"
   xmlns:inkscape="http://www.inkscape.org/namespaces/inkscape"
   version="1.1"
   width="608"
   height="608"
   id="svg2">
  <defs
     id="defs4">
    <inkscape:path-effect
       effect="spiro"
       id="path-effect2991" />
    <inkscape:path-effect
       effect="spiro"
       id="path-effect3177" />
  </defs>
  <metadata
     id="metadata7">
    <rdf:RDF>
      <cc:Work
         rdf:about="">
        <dc:format>image/svg+xml</dc:format>
        <dc:type
           rdf:resource="http://purl.org/dc/dcmitype/StillImage" />
        <dc:title></dc:title>
      </cc:Work>
    </rdf:RDF>
  </metadata>
  <g
     transform="translate(-96,-348.36218)"
     id="layer1">
    <path
       d="M 400,100 C 234.31458,100 100,234.31458 100,400 100,565.68542 234.31458,700 400,700 565.68542,700 700,565.68542 700,400 700,234.31458 565.68542,100 400,100 z m 0,25 c 125.96744,0 232.15388,84.69851 264.71875,200.25 -28.04815,57.85233 -67.95864,109.93982 -116.5625,152.03125 -23.34873,20.22023 -48.84084,38.24566 -77,50.9375 -28.15915,12.69184 -59.13218,19.89338 -89.96875,18.125 -23.16814,-1.32862 -46.05453,-7.78235 -66.34375,-19.03125 53.77011,-29.13615 102.28589,-67.98342 142,-114.5 26.06753,-30.53253 48.87464,-65.23184 57.65625,-104.40625 4.39081,-19.58721 5.13488,-40.10062 1.03125,-59.75 -4.10363,-19.64938 -13.18869,-38.3744 -26.9375,-53 -13.43177,-14.28834 -31.06457,-24.40957 -49.96875,-29.625 -18.90419,-5.21543 -39.02156,-5.61917 -58.3125,-2.09375 -38.58188,7.05084 -73.02846,29.47402 -100.65625,57.3125 -48.698,49.06936 -78.80363,118.3072 -73.28125,187.21875 2.76118,34.45577 14.3078,68.31298 34.09375,96.65625 4.41651,6.32662 9.27188,12.35256 14.46875,18.0625 C 226.11357,533.27523 196.26878,540.45584 166,544.5 140.01219,502.50734 125,453.01265 125,400 125,248.12169 248.12169,125 400,125 z m 1.75,55.5625 c 19.33142,0.0262 38.79415,5.87852 54.21875,17.53125 13.89679,10.49852 24.19392,25.43444 30.03125,41.84375 5.83733,16.4093 7.33536,34.22884 5.34375,51.53125 -3.98322,34.6048 -21.44034,66.34009 -42.53125,94.0625 -37.34406,49.08595 -86.98181,88.37335 -142.1875,115.875 -5.65074,2.81501 -11.39103,5.49065 -17.15625,8.0625 -12.01233,-10.51191 -22.30821,-22.97966 -30.15625,-36.875 -16.39874,-29.03476 -21.8066,-63.52517 -18.625,-96.71875 3.1816,-33.19357 14.5728,-65.18517 29.875,-94.8125 17.74222,-34.35158 41.92637,-66.88993 75.78125,-85.5625 16.92744,-9.33629 36.07483,-14.9637 55.40625,-14.9375 z m 270.78125,182.625 C 674.14242,375.22998 675,387.51657 675,400 c 0,151.87831 -123.12169,275 -275,275 -85.29641,0 -161.52774,-38.82999 -211.96875,-99.78125 31.13362,-7.07108 61.56295,-17.22782 90.75,-30.15625 12.76371,9.72047 26.85974,17.69299 41.84375,23.4375 43.15102,16.54306 92.14184,14.14935 135.8125,-0.96875 43.67065,-15.11809 82.39669,-42.25343 116.15625,-73.8125 40.21639,-37.59502 74.12408,-81.90709 99.9375,-130.53125 z"
       transform="translate(0,252.36218)"
       id="path2993"
       style="fill:#000000;fill-opacity:1;stroke:none" />
    <path
       d="m 421.08718,631.13929 c 0,50.27112 -40.75549,91.02661 -91.02917,91.02661 -50.27369,0 -91.02725,-40.75484 -91.02725,-91.02661 0,-50.27497 40.75292,-91.02917 91.02661,-91.02917 50.27368,0 91.02981,40.7542 91.02981,91.02917 z"
       id="path6"
       style="fill:#dd4814" />
    <path
       d="m 268.16081,618.98657 c -6.71347,0 -12.15336,5.43989 -12.15336,12.15337 0,6.71091 5.43989,12.15144 12.15336,12.15144 6.71091,0 12.15144,-5.44053 12.15144,-12.15144 0,-6.71412 -5.43989,-12.15337 -12.15144,-12.15337 z m 86.77296,55.23509 c -5.81303,3.35579 -7.80274,10.78537 -4.44825,16.59584 3.35642,5.81304 10.78537,7.80402 16.5984,4.44825 5.81111,-3.35513 7.80211,-10.78473 4.44633,-16.59712 -3.35513,-5.81047 -10.78537,-7.80209 -16.59648,-4.44697 z m -60.37505,-43.08365 c 0,-12.01078 5.96847,-22.61953 15.09553,-29.04335 l -8.88493,-14.88294 c -10.63573,7.10589 -18.54701,17.96897 -21.83342,30.69202 3.83875,3.12905 6.29152,7.89393 6.29152,13.23555 0,5.34034 -2.45277,10.10523 -6.29216,13.23364 3.28577,12.72433 11.19769,23.5874 21.83341,30.69266 l 8.88558,-14.88423 c -9.12706,-6.42253 -15.09553,-17.03064 -15.09553,-29.04335 z m 35.50057,-35.50057 c 18.54636,0 33.75942,14.22014 35.35414,32.35224 l 17.32029,-0.25305 c -0.85227,-13.38713 -6.69999,-25.40883 -15.68704,-34.24432 -4.62037,1.74565 -9.95815,1.48104 -14.57146,-1.18303 -4.61908,-2.66664 -7.51757,-7.16498 -8.3114,-12.04675 -4.49064,-1.24276 -9.21698,-1.92034 -14.10389,-1.92034 -8.40453,0 -16.34471,1.97301 -23.39794,5.46687 l 8.44307,15.13149 c 4.54523,-2.11494 9.61004,-3.30311 14.95423,-3.30311 z m 0,71.00178 c -5.34484,0 -10.409,-1.18817 -14.95487,-3.30311 l -8.44435,15.13278 c 7.05387,3.49258 14.99469,5.46622 23.39922,5.46622 4.88691,0 9.61325,-0.67758 14.10453,-1.92034 0.79383,-4.88176 3.69296,-9.38011 8.31269,-12.04867 4.61331,-2.66279 9.95108,-2.9274 14.57145,-1.18111 8.98641,-8.83612 14.83413,-20.85783 15.68512,-34.24496 l -17.3203,-0.25305 c -1.59343,18.13467 -16.80713,32.35224 -35.35349,32.35224 z m 24.87256,-78.58551 c 5.81239,3.35706 13.24262,1.36544 16.59711,-4.44503 3.35642,-5.81305 1.36672,-13.24264 -4.44632,-16.59905 -5.81175,-3.35513 -13.24134,-1.36415 -16.59776,4.44889 -3.35513,5.81047 -1.36414,13.2407 4.44697,16.59519 z"
       id="path8"
       style="fill:#ffffff" />
  </g>
</svg>
