<svg width="20" height="21" xmlns="http://www.w3.org/2000/svg" xmlns:xlink="http://www.w3.org/1999/xlink" overflow="hidden"><defs><clipPath id="clip0"><rect x="42" y="414" width="20" height="21"/></clipPath></defs><g clip-path="url(#clip0)" transform="translate(-42 -414)"><path d="M0 0 22.5436 0 22.5436 22.5436 0 22.5436Z" stroke="#385723" stroke-width="0.939316" fill="none" transform="matrix(1 0 0 1.06069 40.9116 412.584)"/><path d="M19.7256 11.2718C19.7256 15.9407 15.9407 19.7256 11.2718 19.7256 6.60287 19.7256 2.81795 15.9407 2.81795 11.2718 2.81795 6.60287 6.60287 2.81795 11.2718 2.81795 15.9407 2.81795 19.7256 6.60287 19.7256 11.2718Z" stroke="#385723" stroke-width="1.87863" stroke-linecap="round" fill="none" fill-rule="evenodd" transform="matrix(1 0 0 1.06069 40.9116 412.584)"/><path d="M11.2718 15.0291 11.2718 11.2718" stroke="#385723" stroke-width="1.87863" stroke-linecap="round" fill="none" fill-rule="evenodd" transform="matrix(1 0 0 1.06069 40.9116 412.584)"/><path d="M11.2718 7.74936 11.2718 7.86677" stroke="#385723" stroke-width="1.87863" stroke-linecap="round" fill="none" fill-rule="evenodd" transform="matrix(1 0 0 1.06069 40.9116 412.584)"/></g></svg>